<?xml version="1.0" encoding="utf-8"?>
<!-- Generator: Adobe Illustrator 19.2.1, SVG Export Plug-In . SVG Version: 6.00 Build 0)  -->
<!DOCTYPE svg PUBLIC "-//W3C//DTD SVG 1.1//EN" "http://www.w3.org/Graphics/SVG/1.1/DTD/svg11.dtd">
<svg version="1.1" id="Layer_1" xmlns="http://www.w3.org/2000/svg" xmlns:xlink="http://www.w3.org/1999/xlink" x="0px" y="0px"
	 viewBox="0 0 178.7 178.7" style="enable-background:new 0 0 178.7 178.7;" xml:space="preserve">
<style type="text/css">
	.st0{fill-rule:evenodd;clip-rule:evenodd;fill:#576C91;}
	.st1{fill-rule:evenodd;clip-rule:evenodd;fill:#192A59;}
	.st2{fill-rule:evenodd;clip-rule:evenodd;fill:#FFFFFF;}
</style>
<path class="st0" d="M89.1,178.8c49.1,0,89.1-40,89.1-89.1c0-49.1-40-89.1-89.1-89.1C40,0.6,0,40.6,0,89.7
	C0,138.8,40,178.8,89.1,178.8z"/>
<path class="st1" d="M56.8,133.6l2-87.2l63.1-0.5l55.6,55.6c-5.3,39.6-36.8,71.1-76.4,76.4L56.8,133.6z"/>
<path class="st2" d="M63.5,42.9H115c5.3,0,9.7,4.4,9.7,9.7v74c0,5.3-4.4,9.7-9.7,9.7H63.5c-5.3,0-9.7-4.4-9.7-9.7v-74
	C53.8,47.3,58.1,42.9,63.5,42.9L63.5,42.9z M63.1,49.7c-1.2,0-2.2,1-2.2,2.2v13.7c0,1.2,1,2.2,2.2,2.2h52.2c1.2,0,2.2-1,2.2-2.2
	V51.9c0-1.2-1-2.2-2.2-2.2H63.1L63.1,49.7z M66.8,73c-3.2,0-5.8,2.6-5.8,5.8c0,3.2,2.6,5.8,5.8,5.8c3.2,0,5.8-2.6,5.8-5.8
	C72.6,75.6,70,73,66.8,73L66.8,73z M63.2,79.2c0,0.3,0.3,0.6,0.6,0.6h1.9v1.9c0,0.3,0.3,0.6,0.6,0.6h0.9c0.3,0,0.6-0.3,0.6-0.6v-1.9
	h1.9c0.3,0,0.6-0.3,0.6-0.6v-0.9c0-0.3-0.3-0.6-0.6-0.6h-1.9v-1.9c0-0.3-0.3-0.6-0.6-0.6h-0.9c-0.3,0-0.6,0.3-0.6,0.6v1.9h-1.9
	c-0.3,0-0.6,0.3-0.6,0.6V79.2L63.2,79.2z M81.7,73c-3.2,0-5.8,2.6-5.8,5.8c0,3.2,2.6,5.8,5.8,5.8c3.2,0,5.8-2.6,5.8-5.8
	C87.6,75.6,84.9,73,81.7,73L81.7,73z M78.1,79.2c0,0.3,0.3,0.6,0.6,0.6h5.9c0.3,0,0.6-0.3,0.6-0.6v-0.9c0-0.3-0.3-0.6-0.6-0.6h-5.9
	c-0.3,0-0.6,0.3-0.6,0.6V79.2L78.1,79.2z M96.7,73c-3.2,0-5.8,2.6-5.8,5.8c0,3.2,2.6,5.8,5.8,5.8c3.2,0,5.8-2.6,5.8-5.8
	C102.5,75.6,99.9,73,96.7,73L96.7,73z M93.9,76.6c-0.2,0.2-0.2,0.7,0,0.9l1.3,1.3l-1.3,1.3c-0.2,0.2-0.2,0.7,0,0.9l0.6,0.6
	c0.2,0.2,0.7,0.2,0.9,0l1.3-1.3l1.3,1.3c0.2,0.2,0.7,0.2,0.9,0l0.6-0.6c0.2-0.2,0.2-0.6,0-0.9l-1.3-1.3l1.3-1.3
	c0.2-0.2,0.2-0.7,0-0.9L98.9,76c-0.2-0.2-0.6-0.2-0.9,0l-1.3,1.3L95.4,76c-0.2-0.2-0.7-0.2-0.9,0L93.9,76.6L93.9,76.6z M111.7,73
	c-3.2,0-5.8,2.6-5.8,5.8c0,3.2,2.6,5.8,5.8,5.8c3.2,0,5.8-2.6,5.8-5.8C117.5,75.6,114.9,73,111.7,73L111.7,73z M111.7,75.1
	c-0.5,0-0.9,0.4-0.9,0.9c0,0.5,0.4,0.9,0.9,0.9c0.5,0,0.9-0.4,0.9-0.9C112.5,75.5,112.1,75.1,111.7,75.1L111.7,75.1z M108.1,79.2
	c0,0.3,0.3,0.6,0.6,0.6h5.9c0.3,0,0.6-0.3,0.6-0.6v-0.9c0-0.3-0.3-0.6-0.6-0.6h-5.9c-0.3,0-0.6,0.3-0.6,0.6V79.2L108.1,79.2z
	 M111.7,80.8c-0.5,0-0.9,0.4-0.9,0.9c0,0.5,0.4,0.9,0.9,0.9c0.5,0,0.9-0.4,0.9-0.9C112.5,81.1,112.1,80.8,111.7,80.8L111.7,80.8z
	 M66.8,87.9c-3.2,0-5.8,2.6-5.8,5.8c0,3.2,2.6,5.8,5.8,5.8c3.2,0,5.8-2.6,5.8-5.8C72.6,90.5,70,87.9,66.8,87.9L66.8,87.9z
	 M81.7,87.9c-3.2,0-5.8,2.6-5.8,5.8c0,3.2,2.6,5.8,5.8,5.8c3.2,0,5.8-2.6,5.8-5.8C87.6,90.5,84.9,87.9,81.7,87.9L81.7,87.9z
	 M96.7,87.9c-3.2,0-5.8,2.6-5.8,5.8c0,3.2,2.6,5.8,5.8,5.8c3.2,0,5.8-2.6,5.8-5.8C102.5,90.5,99.9,87.9,96.7,87.9L96.7,87.9z
	 M111.7,87.9c-3.2,0-5.8,2.6-5.8,5.8c0,3.2,2.6,5.8,5.8,5.8c3.2,0,5.8-2.6,5.8-5.8C117.5,90.5,114.9,87.9,111.7,87.9L111.7,87.9z
	 M66.8,102.9c-3.2,0-5.8,2.6-5.8,5.8c0,3.2,2.6,5.8,5.8,5.8c3.2,0,5.8-2.6,5.8-5.8C72.6,105.5,70,102.9,66.8,102.9L66.8,102.9z
	 M81.7,102.9c-3.2,0-5.8,2.6-5.8,5.8c0,3.2,2.6,5.8,5.8,5.8c3.2,0,5.8-2.6,5.8-5.8C87.6,105.5,84.9,102.9,81.7,102.9L81.7,102.9z
	 M96.7,102.9c-3.2,0-5.8,2.6-5.8,5.8c0,3.2,2.6,5.8,5.8,5.8c3.2,0,5.8-2.6,5.8-5.8C102.5,105.5,99.9,102.9,96.7,102.9L96.7,102.9z
	 M66.8,117.8c-3.2,0-5.8,2.6-5.8,5.8c0,3.2,2.6,5.8,5.8,5.8c3.2,0,5.8-2.6,5.8-5.8C72.6,120.5,70,117.8,66.8,117.8L66.8,117.8z
	 M81.7,117.8c-3.2,0-5.8,2.6-5.8,5.8c0,3.2,2.6,5.8,5.8,5.8c3.2,0,5.8-2.6,5.8-5.8C87.6,120.5,84.9,117.8,81.7,117.8L81.7,117.8z
	 M96.7,117.8c-3.2,0-5.8,2.6-5.8,5.8c0,3.2,2.6,5.8,5.8,5.8c3.2,0,5.8-2.6,5.8-5.8C102.5,120.5,99.9,117.8,96.7,117.8L96.7,117.8z
	 M105.8,128.2c0,0.7,0.6,1.3,1.3,1.3h9.1c0.7,0,1.3-0.6,1.3-1.3v-24c0-0.7-0.6-1.3-1.3-1.3h-9.1c-0.7,0-1.3,0.6-1.3,1.3V128.2
	L105.8,128.2z M108.1,118.4c0,0.3,0.3,0.6,0.6,0.6h5.9c0.3,0,0.6-0.3,0.6-0.6v-0.9c0-0.3-0.3-0.6-0.6-0.6h-5.9
	c-0.3,0-0.6,0.3-0.6,0.6V118.4L108.1,118.4z M108.1,114.9c0,0.3,0.3,0.6,0.6,0.6h5.9c0.3,0,0.6-0.3,0.6-0.6V114
	c0-0.3-0.3-0.6-0.6-0.6h-5.9c-0.3,0-0.6,0.3-0.6,0.6V114.9z"/>
</svg>
